# Blender 4.5.4 LTS
# www.blender.org
mtllib zig_scaleupobj.mtl
o Cube
v -0.015000 0.550000 -0.850000
v -0.025000 0.505000 -0.850000
v 0.025000 0.475000 -0.800000
v -0.015000 0.550000 0.000000
v -0.025000 0.550000 -0.850000
v -0.025000 -0.003070 -0.070000
v -0.025000 0.505000 0.000000
v -0.025000 0.550000 0.000000
v -0.025000 0.475000 -0.850000
v -0.015000 0.500000 0.000000
v 0.025000 0.475000 0.000000
v -0.025000 -0.000000 -0.850000
v -0.025000 0.500000 0.000000
v -0.025000 0.475000 0.000000
v 0.075000 0.505000 -0.850000
v -0.025000 0.475000 -0.800000
v -0.025000 0.500000 -0.850000
v 0.075000 0.505000 0.000000
v -0.025000 0.475000 0.000000
v 0.075000 0.475000 -0.850000
v -0.025000 0.005000 -0.850000
v 0.075000 0.475000 0.000000
v 0.025000 0.425000 -0.800000
v -0.025000 0.496930 -0.070000
v 0.025000 0.425000 0.000000
v -0.025000 -0.000000 -0.780000
v -0.025000 0.425000 -0.800000
v -0.025000 0.500000 -0.780000
v -0.025000 0.425000 0.000000
v -0.025000 0.005000 0.000000
v 0.025000 -0.000000 -0.850000
v -0.025000 -0.003070 0.000000
v 0.025000 0.500000 -0.850000
v -0.025000 -0.005000 -0.850000
v -0.025000 0.496930 0.000000
v 0.025000 -0.000000 -0.780000
v -0.025000 -0.005000 0.000000
v 0.025000 0.005000 -0.850000
v 0.025000 -0.003070 -0.070000
v 0.025000 0.005000 0.000000
v 0.025000 -0.003070 0.000000
v 0.025000 -0.005000 -0.850000
v 0.025000 -0.005000 0.000000
v -0.025000 0.005000 0.000000
v 0.025000 0.005000 0.000000
v 0.025000 0.005000 -0.070000
v -0.025000 0.005000 -0.070000
v 0.025000 0.005000 -0.001130
v 0.025000 0.004987 -0.001128
v -0.025000 0.005000 -0.849300
v -0.025000 0.005000 -0.780000
v 0.025000 0.005000 -0.780700
v 0.025000 0.005000 -0.780000
v 0.025000 -0.000000 -0.850000
v -0.025000 -0.000000 -0.850000
v 0.025000 0.004276 -0.780000
v 0.025000 0.004282 -0.780600
v -0.025000 0.004993 -0.849301
v 0.025000 0.425000 0.000000
v 0.025000 0.475000 0.000000
v -0.025000 0.425000 0.000000
v -0.025000 0.475000 0.000000
v 0.025000 0.425000 -0.070000
v 0.025000 0.475000 -0.070000
v -0.025000 0.425000 -0.070000
v -0.025000 0.475000 -0.070000
v -0.025000 0.475000 -0.780000
v -0.025000 0.425000 -0.780000
v -0.025000 0.473750 -0.780000
v 0.025000 0.425000 -0.780000
v 0.025000 0.426250 -0.780000
v 0.025000 0.475000 -0.780000
v 0.025000 0.475000 -0.003121
v 0.025000 0.475000 -0.000050
v -0.025000 0.475000 -0.783500
v -0.025000 0.475000 -0.066879
v -0.025000 0.425000 -0.059765
v 0.025000 0.425000 -0.790606
v 0.025000 0.425000 -0.780106
v -0.025000 0.473978 -0.783643
v 0.025000 0.425592 -0.790522
v 0.025000 0.426243 -0.780104
v 0.025000 0.474803 -0.003149
v 0.025000 0.474997 -0.000050
v -0.025000 0.475000 0.000000
v 0.025000 0.475000 0.000000
v 0.025000 0.475000 -0.070000
v -0.025000 0.475000 -0.070000
v -0.025000 0.477471 -0.070000
v -0.025000 0.475000 -0.780000
v 0.025000 0.475000 -0.780000
v 0.025000 0.475000 -0.850000
v 0.025000 0.500000 -0.850000
v -0.025000 0.500000 -0.850000
v -0.025000 0.475000 -0.066879
v -0.025000 0.475000 -0.000000
v -0.025000 0.475000 -0.000000
v -0.025000 0.477372 -0.067217
v -0.015000 0.500000 -0.850000
v -0.025000 0.500000 -0.850000
v -0.015000 0.500000 -0.850000
v -0.024000 0.505000 0.000000
v -0.025000 0.505000 0.000000
v -0.015000 0.505000 0.000000
v -0.015000 0.505000 -0.850000
v -0.025000 0.505000 -0.850000
v -0.025000 0.505000 0.000000
v -0.015000 0.500500 -0.850000
v -0.024057 0.504717 0.000000
v -0.015099 0.500495 -0.850000
vn -1.0000 -0.0000 -0.0000
vn -0.0000 -0.0000 1.0000
vn 1.0000 -0.0000 -0.0000
vn -0.0000 -0.0000 -1.0000
vn -0.0000 -1.0000 -0.0000
vn -0.0000 1.0000 -0.0000
vt 0.589035 0.036555
vt 0.589035 0.250000
vt 0.379035 0.250000
vt 0.379035 0.000000
vt 0.589035 0.000000
vt 0.614035 0.250000
vt 0.614035 0.011145
vt 0.614035 0.000000
vt 0.614035 0.249999
vt 0.615270 0.000000
vt 0.615221 0.009939
vt 0.625000 0.000000
vt 0.625000 0.250000
vt 0.614035 0.249999
vt 0.375000 0.250000
vt 0.375000 0.000000
vt 0.379035 0.500000
vt 0.589035 0.500000
vt 0.614035 0.500000
vt 0.614035 0.750000
vt 0.614035 0.750000
vt 0.614035 0.511145
vt 0.614035 0.500180
vt 0.589035 0.750000
vt 0.379035 0.750000
vt 0.379035 0.504035
vt 0.613936 0.511245
vt 0.614033 0.500180
vt 0.379028 0.504028
vt 0.375000 0.750000
vt 0.375000 0.500000
vt 0.614035 1.000000
vt 0.589035 1.000000
vt 0.379035 1.000000
vt 0.375000 0.125000
vt 0.395588 0.125000
vt 0.395588 0.000000
vt 0.604412 0.000000
vt 0.604412 0.201739
vt 0.625000 0.201739
vt 0.375206 0.000000
vt 0.375206 0.000000
vt 0.625000 0.500000
vt 0.625000 0.750000
vt 0.625000 0.548261
vt 0.604412 0.548261
vt 0.604412 0.750000
vt 0.395588 0.750000
vt 0.395588 0.731895
vt 0.395588 0.625000
vt 0.375000 0.625000
vt 0.395382 0.750000
vt 0.395412 0.732050
vt 0.375000 1.000000
vt 0.125000 0.750000
vt 0.875000 0.500000
vt 0.375000 0.000000
vt 0.612500 0.000000
vt 0.612500 0.250000
vt 0.612500 0.250000
vt 0.612500 0.237500
vt 0.612500 0.178572
vt 0.587500 0.178572
vt 0.587500 0.250000
vt 0.377500 0.250000
vt 0.377500 0.002500
vt 0.377500 0.000000
vt 0.611875 0.250000
vt 0.611989 0.236989
vt 0.612500 0.500000
vt 0.377500 0.500000
vt 0.587500 0.500000
vt 0.612500 0.750000
vt 0.625000 0.750000
vt 0.377500 0.750000
vt 0.377500 0.502500
vt 0.587500 0.500379
vt 0.587500 0.537879
vt 0.587500 0.571428
vt 0.612500 0.571428
vt 0.612500 0.500000
vt 0.588125 0.500000
vt 0.588122 0.500373
vt 0.587796 0.537580
vt 0.625000 1.000000
vt 0.375000 0.750000
vt 0.875000 0.750000
vt 0.825000 0.750000
vt 0.875000 0.750000
vt 0.381250 0.000000
vt 0.603125 0.000000
vt 0.375000 0.256250
vt 0.603125 0.500000
vt 0.381250 0.500000
vt 0.375000 0.756250
vt 0.625000 0.067246
vt 0.604412 0.067246
vt 0.604412 0.229412
vt 0.604412 0.250000
vt 0.395588 0.250000
vt 0.395588 0.041667
vt 0.375000 0.041667
vt 0.375000 0.375000
vt 0.375000 0.975000
vt 0.375000 0.975000
vt 0.150000 0.702504
vt 0.150000 0.700000
vt 0.250000 0.500000
vt 0.150000 0.725000
vt 0.150000 0.700000
vt 0.149752 0.702950
vt 0.850000 0.525000
vt 0.850000 0.525000
vt 0.872500 0.502500
vt 0.872642 0.502358
vt 0.375000 0.475000
vt 0.375000 0.775000
vt 0.125000 0.500000
vt 0.125000 0.747525
vt 0.625000 0.525000
vt 0.625000 0.523585
s 0
f 77/1/1 65/5/1 47/4/1 44/3/1 61/2/1
f 62/6/1 85/6/1 96/9/1 95/7/1 88/8/1 66/8/1 76/7/1
f 89/10/1 88/8/1 95/7/1 98/11/1
f 24/12/1 89/10/1 98/11/1 95/7/1 97/14/1 96/9/1 85/6/1 35/13/1
f 61/2/1 62/6/1 76/7/1 77/1/1
f 66/8/1 65/5/1 77/1/1 76/7/1
f 44/3/1 47/4/1 6/16/1 32/15/1
f 45/17/2 59/18/2 61/2/2 44/3/2
f 60/19/2 86/19/2 85/6/2 62/6/2
f 87/20/3 86/19/3 60/19/3 74/23/3 73/22/3 64/21/3
f 63/24/3 59/18/3 45/17/3 48/26/3 46/25/3
f 83/27/3 84/28/3 74/23/3 60/19/3 59/18/3 63/24/3 64/21/3 73/22/3
f 83/27/3 73/22/3 74/23/3 84/28/3
f 48/26/3 45/17/3 49/29/3
f 46/25/3 48/26/3 49/29/3 45/17/3 41/31/3 39/30/3
f 88/32/4 87/21/4 64/21/4 66/32/4
f 65/33/4 63/24/4 46/25/4 47/34/4
f 55/35/1 34/15/1 37/13/1 30/12/1 44/12/1 32/40/1 6/39/1 47/38/1 51/37/1 26/36/1
f 50/41/1 21/16/1 58/42/1
f 58/42/1 21/16/1 55/35/1 26/36/1 51/37/1 50/41/1
f 34/15/5 42/31/5 43/31/5 37/15/5
f 43/43/3 42/31/3 54/51/3 36/50/3 56/49/3 53/48/3 46/47/3 39/46/3 41/45/3 45/44/3 40/44/3
f 56/49/3 57/53/3 52/52/3 53/48/3
f 57/53/3 56/49/3 36/50/3 54/51/3 38/30/3 52/52/3
f 45/30/6 44/54/6 30/54/6 40/30/6
f 53/30/6 51/54/6 47/54/6 46/30/6
f 55/55/4 54/31/4 42/31/4 34/55/4
f 43/44/2 40/44/2 30/56/2 37/56/2
f 12/57/1 55/57/1 21/67/1 50/66/1 51/65/1 68/64/1 27/63/1 16/62/1 75/61/1 67/60/1 90/59/1 9/58/1 94/12/1 17/12/1
f 94/12/1 9/58/1 90/59/1 28/13/1
f 69/68/1 67/60/1 75/61/1 80/69/1
f 80/69/1 75/61/1 16/62/1 27/63/1 68/64/1 69/68/1
f 72/70/2 91/70/2 90/60/2 67/60/2
f 53/71/2 70/72/2 68/64/2 51/65/2
f 92/73/3 91/81/3 72/81/3 3/80/3 23/79/3 78/78/3 79/77/3 70/72/3 53/71/3 52/76/3 38/75/3 54/30/3 31/30/3 33/44/3 93/74/3
f 79/77/3 82/83/3 71/82/3 70/72/3
f 82/83/3 79/77/3 78/78/3 81/84/3 23/79/3 3/80/3 72/81/3 71/82/3
f 23/79/3 81/84/3 78/78/3
f 31/30/4 12/54/4 17/85/4 33/44/4
f 31/30/5 54/86/5 55/55/5 12/55/5
f 94/87/6 100/89/6 101/88/6 99/88/6 93/44/6 33/44/6 17/87/6
f 72/90/6 67/90/6 66/91/6 64/91/6
f 60/12/6 62/12/6 19/12/6 11/12/6
f 19/15/1 62/15/1 61/31/1 29/31/1
f 67/15/1 69/92/1 68/31/1 65/31/1 66/15/1
f 65/93/5 68/94/5 70/94/5 63/93/5
f 61/43/5 59/43/5 25/43/5 29/43/5
f 59/30/3 60/54/3 11/54/3 25/30/3
f 71/95/3 72/54/3 64/54/3 63/30/3 70/30/3
f 29/43/2 25/44/2 11/44/2 19/43/2
f 2/16/1 94/102/1 28/101/1 90/100/1 88/99/1 89/98/1 24/97/1 35/96/1 85/13/1 14/13/1 7/12/1
f 14/15/5 85/15/5 86/103/5 87/103/5 88/15/5 90/15/5 91/103/5 92/103/5 20/31/5 22/31/5
f 20/31/3 15/30/3 18/44/3 22/43/3
f 15/30/6 105/105/6 104/104/6 18/30/6
f 7/54/6 103/54/6 106/54/6 2/54/6
f 108/106/4 105/109/4 15/31/4 20/31/4 92/108/4 93/108/4 99/107/4
f 106/55/4 100/55/4 94/55/4 2/55/4
f 108/106/4 110/111/4 101/110/4 100/55/4 106/55/4 105/109/4
f 101/110/4 110/111/4 108/106/4 99/107/4
f 18/44/2 104/113/2 10/112/2 13/56/2 107/56/2 103/56/2 7/56/2 14/56/2 22/44/2
f 103/56/2 107/56/2 109/115/2 102/114/2
f 10/112/2 104/113/2 102/114/2 109/115/2 107/56/2 13/56/2
f 1/15/6 5/15/6 8/12/6 4/12/6
f 5/15/1 106/116/1 103/116/1 8/15/1
f 104/117/3 105/117/3 1/54/3 4/54/3
f 105/55/4 106/118/4 5/118/4 1/55/4
f 108/55/4 110/119/4 101/55/4 100/118/4 106/118/4 105/55/4
f 101/55/4 110/119/4 108/55/4 99/55/4
f 8/43/2 103/43/2 102/120/2 104/44/2 4/44/2
f 103/43/2 107/43/2 109/121/2 102/120/2
f 10/44/2 104/44/2 102/120/2 109/121/2 107/43/2 13/43/2
